<?xml version="1.0" encoding="utf-8"?>
<!-- Generator: Adobe Illustrator 21.1.0, SVG Export Plug-In . SVG Version: 6.00 Build 0)  -->
<svg version="1.1" id="Layer_1" xmlns="http://www.w3.org/2000/svg" xmlns:xlink="http://www.w3.org/1999/xlink" x="0px" y="0px"
	 viewBox="0 0 80.8 20.8" style="enable-background:new 0 0 80.8 20.8;" xml:space="preserve">
<style type="text/css">
	.st0{display:none;}
	.st1{display:none;fill:#565656;}
	.st2{font-family:'ToppanBunkyuMidashiGothicStdN-ExtraBold-83pv-RKSJ-H';}
	.st3{font-size:24.25px;}
	.st4{fill:#565656;}
</style>
<title>logo_hello_zurich</title>
<path class="st0" d="M7.6,6.9c-1.3,0-3.5,0.7-4.1,2.3V0H0v20.5h3.5v-7.1c-0.1-1.7,1.2-3,2.9-3.1h0.3c1.5,0,2.8,1.2,2.8,2.8v7.4H13
	v-7.4C12.9,9.2,11,6.9,7.6,6.9z M22.7,6.9c-3.7-0.1-6.8,2.8-6.9,6.4v0.4c-0.2,3.7,2.7,6.8,6.5,7h0.4c2.5,0,5-0.9,6.2-3.2
	c-0.8-0.5-1.8-1-2.6-1.4c-0.7,1.1-2,1.8-3.3,1.7c-1.8,0.2-3.4-1.1-3.7-2.8h10.1c0-0.3,0.1-0.9,0.1-1.2c0.2-3.6-2.5-6.7-6.2-6.9
	C23.3,6.9,22.7,6.9,22.7,6.9z M19.3,12.6c0.2-1.7,1.8-2.9,3.5-2.8c1.7-0.1,3.1,1.1,3.3,2.8C26.1,12.6,19.3,12.6,19.3,12.6z M32.4,0
	h3.5v20.5h-3.5V0z M39.8,0h3.5v20.5h-3.5V0z M53.3,10.6c1.8-0.1,3.4,1.4,3.5,3.2v0.1h3.5c0-3.8-3.1-6.9-6.9-6.9
	c-3.8,0-6.9,3.1-6.9,6.9h3.4c0-1.9,1.5-3.4,3.3-3.4C53.2,10.6,53.2,10.6,53.3,10.6z M64,10.5h6.5l-6.9,7.4v2.6h11.9v-3.3h-7l7-7.3
	V7.2H64 M87.6,14.3c0,2.3-1.4,3.1-2.9,3.1c-1.2,0-2.5-0.8-2.5-3V7.2h-3.5V15c0,3.7,2.1,5.7,5.2,5.7c1.5,0,2.9-0.8,3.7-2.2v1.9H91
	V7.2h-3.5C87.5,7.2,87.6,14.3,87.6,14.3z M98.4,10.4V7.2H95v13.3h3.5v-4.7c0-3.5,1-5.6,3.3-5.6c0.7,0,1.4,0.1,2,0.4l0.6-3.1
	C103.7,7.2,103,7,102.2,7C100.7,6.9,99.1,7.9,98.4,10.4z M108.4,0c-1.2,0-2.1,0.9-2.1,2.1s0.9,2.1,2.1,2.1s2.1-0.9,2.1-2.1
	S109.5,0,108.4,0z M106.7,7.2h3.4v13.3h-3.4V7.2z M120.3,17.5c-2,0-3.7-1.6-3.7-3.6s1.6-3.6,3.6-3.5h0.1c1.1,0,2.1,0.5,2.8,1.3
	l2.8-2.1c-2.5-3-7.1-3.4-10.1-0.9c-1.5,1.3-2.5,3.2-2.5,5.2c0.1,4,3.4,7.1,7.4,7c2.1-0.1,4-1,5.3-2.6l-2.8-2
	C122.4,17,121.4,17.5,120.3,17.5z M136.4,6.9c-1.3,0-3.5,0.7-4.1,2.3V0h-3.5v20.5h3.5v-7.1c-0.1-1.7,1.2-3,2.9-3.1h0.3
	c1.5,0,2.8,1.2,2.8,2.8v7.4h3.5v-7.4C141.7,9.2,139.8,6.9,136.4,6.9z M60.2,13.8v-0.1V13.8z"/>
<text transform="matrix(1 0 0 1 -1.611710e-04 19.2946)" class="st1 st2 st3">アライフ</text>
<g>
	<path class="st4" d="M12.1,6.4c0,0.4,0,0.9,0,1.3c1.1-0.9,2.4-2,3.2-3H5.7L1.5,4.8L1.3,4.6V1.4l0.2-0.1l4.1,0.1h10.8l2.4-0.1
		l1.7,2.3c0.1,0.1,0.1,0.2,0.1,0.3c0,0.1,0,0.3-0.2,0.5c-1.2,1.5-3.3,3.7-5.3,5.4c-0.4,0.3-0.5,0.3-0.9,0.1l-2.2-1.5
		c-0.2,5.2-1.6,8.7-5.8,11.7c-0.2,0.1-0.3,0.2-0.4,0.2S5.5,20.2,5.3,20l-3.2-1.6c5.1-2.9,6.1-6,6-12l0.2-0.2H12L12.1,6.4z"/>
	<path class="st4" d="M23.2,9.3V6.1L23.4,6l3.3,0.1h9.3L39.5,6l0.2,0.2c-0.8,7.7-4.5,11.8-11.3,14.1c-0.2,0.1-0.4,0.1-0.5,0.1
		c-0.2,0-0.3-0.1-0.6-0.3l-2.7-2.3c5.6-1.7,9.2-4.2,10.3-8.4h-8.1l-3.3,0.1L23.2,9.3z M34.1,4.2h-5.6l-3,0.1l-0.2-0.2V1l0.2-0.1
		l2.9,0.1H34l3.3-0.1L37.6,1v3.1l-0.2,0.2L34.1,4.2z"/>
	<path class="st4" d="M51,9.6c-1.8,1.3-3.8,2.5-5.9,3.8c-0.5,0.3-0.6,0.3-1-0.1L41.5,11c5.7-2.8,10.2-5.8,14.6-10.9h0.3l3,2.1l0,0.3
		c-1.6,1.6-3.1,3-4.5,4.2v5.6l0.1,7.6h-4.2l0.1-7.5V9.6z"/>
	<path class="st4" d="M62.7,2l3.7,0.1h12.8l0.2,0.2C79,6.6,77.6,10.6,75,13.9c-1.9,2.4-4.7,4.3-8.3,5.9c-0.2,0.1-0.3,0.1-0.5,0.1
		c-0.1,0-0.3-0.1-0.5-0.3l-3-2.4c4.1-1.4,6.8-3.1,8.8-5.5c1.6-1.9,2.6-4,3.1-6.3h-8.2l-3.7,0.1l-0.2-0.1V2.2L62.7,2z"/>
</g>
</svg>
