<svg xmlns="http://www.w3.org/2000/svg" viewBox="0 0 141.7 20.8"><title>logo_hello_zurich</title><path d="M7.6 6.9c-1.3 0-3.5.7-4.1 2.3V0H0v20.5h3.5v-7.1c-.1-1.7 1.2-3 2.9-3.1h.3c1.5 0 2.8 1.2 2.8 2.8v7.4H13v-7.4c-.1-3.9-2-6.2-5.4-6.2zM22.7 6.9c-3.7-.1-6.8 2.8-6.9 6.4v.4c-.2 3.7 2.7 6.8 6.5 7h.4c2.5 0 5-.9 6.2-3.2-.8-.5-1.8-1-2.6-1.4-.7 1.1-2 1.8-3.3 1.7-1.8.2-3.4-1.1-3.7-2.8h10.1c0-.3.1-.9.1-1.2.2-3.6-2.5-6.7-6.2-6.9h-.6zm-3.4 5.7c.2-1.7 1.8-2.9 3.5-2.8 1.7-.1 3.1 1.1 3.3 2.8h-6.8zM32.4 0h3.5v20.5h-3.5zM39.8 0h3.5v20.5h-3.5zM53.3 10.6c1.8-.1 3.4 1.4 3.5 3.2v.1h3.5c0-3.8-3.1-6.9-6.9-6.9-3.8 0-6.9 3.1-6.9 6.9h3.4c0-1.9 1.5-3.4 3.3-3.4 0 .1 0 .1.1.1zM64 10.5h6.5l-6.9 7.4v2.6h11.9v-3.3h-7l7-7.3V7.2H64M87.6 14.3c0 2.3-1.4 3.1-2.9 3.1-1.2 0-2.5-.8-2.5-3V7.2h-3.5V15c0 3.7 2.1 5.7 5.2 5.7 1.5 0 2.9-.8 3.7-2.2v1.9H91V7.2h-3.5l.1 7.1zM98.4 10.4V7.2H95v13.3h3.5v-4.7c0-3.5 1-5.6 3.3-5.6.7 0 1.4.1 2 .4l.6-3.1c-.7-.3-1.4-.5-2.2-.5-1.5-.1-3.1.9-3.8 3.4zM108.4 0c-1.2 0-2.1.9-2.1 2.1s.9 2.1 2.1 2.1c1.2 0 2.1-.9 2.1-2.1s-1-2.1-2.1-2.1zM106.7 7.2h3.4v13.3h-3.4zM120.3 17.5c-2 0-3.7-1.6-3.7-3.6s1.6-3.6 3.6-3.5h.1c1.1 0 2.1.5 2.8 1.3l2.8-2.1c-2.5-3-7.1-3.4-10.1-.9-1.5 1.3-2.5 3.2-2.5 5.2.1 4 3.4 7.1 7.4 7 2.1-.1 4-1 5.3-2.6l-2.8-2c-.8.7-1.8 1.2-2.9 1.2zM136.4 6.9c-1.3 0-3.5.7-4.1 2.3V0h-3.5v20.5h3.5v-7.1c-.1-1.7 1.2-3 2.9-3.1h.3c1.5 0 2.8 1.2 2.8 2.8v7.4h3.5v-7.4c-.1-3.9-2-6.2-5.4-6.2zM60.2 13.8v-.1.1z"/></svg>